<?xml version="1.0" encoding="utf-8"?>
<!-- Generator: Adobe Illustrator 16.0.4, SVG Export Plug-In . SVG Version: 6.00 Build 0)  -->
<!DOCTYPE svg PUBLIC "-//W3C//DTD SVG 1.1//EN" "http://www.w3.org/Graphics/SVG/1.1/DTD/svg11.dtd">
<svg version="1.1"
	 id="svg2" xmlns:svg="http://www.w3.org/2000/svg" xmlns:dc="http://purl.org/dc/elements/1.1/" xmlns:cc="http://web.resource.org/cc/" xmlns:rdf="http://www.w3.org/1999/02/22-rdf-syntax-ns#"
	 xmlns="http://www.w3.org/2000/svg" xmlns:xlink="http://www.w3.org/1999/xlink" x="0px" y="0px" width="246.02px"
	 height="334.334px" viewBox="1.06 6.352 246.02 334.334" enable-background="new 1.06 6.352 246.02 334.334" xml:space="preserve">
<path fill="#333333" d="M230.359,249.787c-2.691,2.928-5.648,5.659-8.862,8.189c-3.215,2.527-6.518,4.766-9.896,6.706
	c-3.385,1.942-6.724,3.522-10.031,4.735c-3.306,1.217-6.398,1.976-9.271,2.271c-3.122,0.329-5.726-0.251-7.806-1.73
	c-2.089-1.485-3.927-3.562-5.525-6.23c-1.602-2.671-3.089-5.805-4.466-9.404c-1.381-3.602-2.893-7.359-4.525-11.271
	c-1.638-3.914-3.515-7.878-5.634-11.892c-2.125-4.018-4.762-7.769-7.926-11.261c-3.167-3.487-6.937-6.553-11.312-9.196
	c-4.381-2.645-9.658-4.623-15.827-5.947c9.641-1.535,18.224-3.668,25.741-6.379c7.521-2.713,14.13-5.809,19.838-9.278
	c5.695-3.472,10.487-7.224,14.359-11.26c3.874-4.036,6.947-8.119,9.225-12.253c2.271-4.134,3.828-8.247,4.646-12.344
	c0.822-4.095,0.998-7.934,0.518-11.514c-0.737-5.521-2.432-10.526-5.085-15.012c-2.652-4.489-5.992-8.469-10.01-11.947
	c-4.02-3.474-8.654-6.45-13.911-8.927c-5.259-2.474-10.852-4.426-16.777-5.848c-5.928-1.423-12.088-2.327-18.478-2.721
	c-6.391-0.39-12.754-0.253-19.093,0.409c-10.211,1.068-19.921,2.97-29.146,5.676c-27.502,25.305-56.087,49.794-67.754,74.35
	c-26.525,55.83-10.157,112.792,53.044,140.267c3.333-1.553,6.316-3.553,8.918-6.051c5.653-5.432,9.974-12.883,12.948-22.344
	c2.979-9.461,4.868-20.803,5.678-34.012c0.806-13.208,0.961-28.068,0.473-44.583l7.984-0.835c3.292-0.345,6.216,0.708,8.772,3.168
	c2.555,2.453,4.926,5.801,7.12,10.031c2.191,4.236,4.319,9.1,6.38,14.598c2.062,5.496,4.246,11.108,6.555,16.844
	c2.306,5.733,4.85,11.312,7.63,16.732c2.78,5.426,5.979,10.171,9.611,14.258c3.628,4.084,7.796,7.239,12.506,9.469
	c4.713,2.231,10.146,3.023,16.313,2.379c5.489-0.571,10.807-1.658,15.945-3.254c5.139-1.599,9.972-3.426,14.495-5.489
	c1.855-0.847,3.626-1.712,5.343-2.587c6.204-7.979,11.452-17.031,15.372-27.172L230.359,249.787z M106.331,187.869
	c-0.055-6.196,0.049-11.674,0.313-16.429c0.266-4.754,0.249-8.554-0.044-11.398l-0.136-1.007c-0.348-2.611-1.332-4.684-2.947-6.216
	c-1.617-1.532-4.54-2.077-8.765-1.636c-3.211,0.336-5.854,1.236-7.927,2.7c-2.073,1.464-3.783,3.271-5.123,5.414
	c-1.341,2.147-2.337,4.484-2.98,7.009c-0.649,2.525-1.066,5.009-1.258,7.448c-0.188,2.442-0.25,4.718-0.181,6.827
	c0.068,2.111,0.139,3.769,0.215,4.969l0.188,2.363c-0.507,0.055-1.599,0.072-3.27,0.06c-1.673-0.013-3.498-0.05-5.477-0.108
	c-1.979-0.058-3.866-0.089-5.664-0.089s-2.995,0.03-3.586,0.093c-1.352,0.141-2.387,0.57-3.104,1.289
	c-0.721,0.717-1.229,1.545-1.529,2.483c-0.306,0.94-0.448,1.938-0.437,2.995c0.013,1.062,0.069,1.962,0.167,2.707
	c0.419,3.133,2.497,5.714,6.236,7.742c3.74,2.033,9.09,4.082,16.047,6.15c0.229,1.719,0.517,4.202,0.867,7.456
	c0.35,3.254,0.653,6.983,0.917,11.192c0.261,4.209,0.458,8.729,0.587,13.556c0.132,4.828,0.086,9.636-0.13,14.422
	c-0.219,4.789-0.669,9.433-1.354,13.933c-0.686,4.492-1.648,8.49-2.896,11.988c-1.25,3.494-2.835,6.348-4.771,8.553
	c-1.935,2.207-4.337,3.461-7.207,3.763c-5.66,0.593-10.698-0.412-15.113-3.015c-4.416-2.604-8.217-6.195-11.396-10.781
	c-3.182-4.582-5.77-9.852-7.763-15.811c-1.997-5.955-3.396-11.955-4.202-18c-1.046-7.832-1.321-16.158-0.83-24.986
	c0.492-8.826,1.992-17.645,4.5-26.455c2.506-8.809,6.161-17.36,10.965-25.654c4.803-8.292,10.955-15.781,18.458-22.466
	c7.503-6.685,16.493-12.314,26.979-16.89c10.481-4.574,22.69-7.591,36.63-9.049c7.604-0.795,14.377-0.727,20.327,0.201
	c5.95,0.928,11.038,2.477,15.268,4.643c4.229,2.168,7.561,4.827,9.997,7.976c2.427,3.151,3.892,6.554,4.379,10.208
	c0.499,3.73-0.042,7.702-1.625,11.912c-1.576,4.212-4.764,8.271-9.546,12.176c-4.796,3.905-11.518,7.426-20.182,10.563
	C131.27,183.804,120.07,186.205,106.331,187.869z"/>
<path id="path25_2_" fill="none" stroke="#333333" stroke-width="18" stroke-miterlimit="10" d="M110.843,330.144
	c74.592,15.227,224.323-82.055,35.988-304.85c-14.87,55.31-102.417,103.92-124.944,152.794
	C-8.475,243.958,19.078,311.412,110.843,330.144z"/>
</svg>
